<?xml version="1.0" encoding="UTF-8" standalone="no"?>
<svg
   width="837.47198"
   height="599.27197"
   viewBox="0 0 837.472 599.272"
   role="img"
   artist="Katerina Limpitsouni"
   source="https://undraw.co/"
   version="1.1"
   id="svg1"
   sodipodi:docname="undraw_success-factors_i417.svg"
   xmlns:inkscape="http://www.inkscape.org/namespaces/inkscape"
   xmlns:sodipodi="http://sodipodi.sourceforge.net/DTD/sodipodi-0.dtd"
   xmlns="http://www.w3.org/2000/svg"
   xmlns:svg="http://www.w3.org/2000/svg">
  <defs
     id="defs1" />
  <sodipodi:namedview
     id="namedview1"
     pagecolor="#ffffff"
     bordercolor="#000000"
     borderopacity="0.25"
     inkscape:showpageshadow="2"
     inkscape:pageopacity="0.0"
     inkscape:pagecheckerboard="0"
     inkscape:deskcolor="#d1d1d1" />
  <g
     id="Group_289"
     data-name="Group 289"
     transform="translate(-516.063,-308.541)">
    <path
       id="Path_4955-653"
       data-name="Path 4955"
       d="M 128.877,561.183 H 0 V 559.1 h 128.935 z"
       transform="translate(1211.898,343.824)"
       fill="#cbcbcb" />
    <path
       id="Path_4981-654"
       data-name="Path 4981"
       d="m 783.9,566.059 -5.716,12.385 -10.48,-0.953 -6.668,-21.912 10.479,-5.716 z"
       transform="translate(473.411,277.725)"
       fill="#ffb9b9" />
    <path
       id="Path_4982-655"
       data-name="Path 4982"
       d="m 822.424,597.184 0.226,8.631 -16.2,0.953 v -10.48 z"
       transform="translate(470.866,275.123)"
       fill="#ffb9b9" />
    <path
       id="Path_4983-656"
       data-name="Path 4983"
       d="m 814.784,429.98 -3.811,76.214 9.527,82.884 -28.581,3.811 -18.1,-104.8 -5.719,-71.447 z"
       transform="translate(473.016,285.191)"
       fill="#090814" />
    <path
       id="Path_4984-657"
       data-name="Path 4984"
       d="m 1015.622,523.173 c 0,0 11.432,75.262 -12.385,100.032 -23.817,24.77 -56.208,68.595 -56.208,68.595 l -22.864,-28.581 58.114,-61.924 -11.432,-41.918 -46.682,-21.912 7.622,-52.4 68.593,-0.953 z"
       transform="translate(316.953,164.371)"
       fill="#090814" />
    <circle
       id="Ellipse_851"
       data-name="Ellipse 851"
       cx="20.959"
       cy="20.959"
       r="20.959"
       transform="translate(1255.408,471.285)"
       fill="#ffb9b9" />
    <path
       id="Path_4985-658"
       data-name="Path 4985"
       d="m 979.155,323.643 c 0,0 0.953,29.533 5.716,33.344 4.763,3.811 -17.148,20.006 -17.148,20.006 l -14.29,-22.864 V 333.17 Z"
       transform="translate(315.313,173.363)"
       fill="#ffb9b9" />
    <path
       id="Path_4986-659"
       data-name="Path 4986"
       d="m 812.718,241.006 11.566,-17.465 6.534,8.891 9.527,26.675 -7.622,103.842 -44.777,0.953 -5.716,-119.086 14.29,-17.148 z"
       transform="translate(472.224,296.014)"
       fill="#f2f2f2" />
    <path
       id="Path_4987-660"
       data-name="Path 4987"
       d="m 917.761,373.039 -7.622,-0.953 c 0,0 -1.905,0.953 -2.858,7.621 -0.953,6.668 -12.381,65.736 -12.381,65.736 l 15.243,72.4 17.148,-22.864 -10.483,-40.009 10.48,-40.013 z"
       transform="translate(318.594,170.648)"
       fill="#090814" />
    <path
       id="Path_4988-661"
       data-name="Path 4988"
       d="m 865.32,248.1 h 5.716 l 14.291,77.167 -13.337,60.02 -13.338,-21.912 3.811,-23.817 -1.9,-20.959 -6.669,-12.386 z"
       transform="translate(468.208,294.637)"
       fill="#090814" />
    <path
       id="Path_4989-662"
       data-name="Path 4989"
       d="m 930.618,698.564 c 0,0 5.716,-1.905 5.716,1.905 0,3.81 -3.811,15.243 -3.811,15.243 0,0 5.716,35.249 -2.858,33.344 -8.574,-1.905 -15.243,-18.1 -16.2,-22.864 -0.957,-4.764 -5.716,-29.533 -5.716,-29.533 0,0 -7.621,-18.1 -2.858,-19.054 4.763,-0.954 18.1,-4.763 18.1,-4.763 0,0 -7.616,23.816 7.627,25.722 z"
       transform="translate(318.121,153.795)"
       fill="#090814" />
    <path
       id="Path_4990-663"
       data-name="Path 4990"
       d="m 961.273,731.089 c 0,0 15.243,-9.527 18.1,-1.905 a 80.049,80.049 0 0 1 3.811,17.148 c 0,0 3.811,12.385 -11.432,10.48 -15.243,-1.905 -13.338,-1.905 -14.29,-7.622 -0.952,-5.717 3.811,-18.101 3.811,-18.101 z"
       transform="translate(315.095,150.803)"
       fill="#090814" />
    <path
       id="Path_4991-664"
       data-name="Path 4991"
       d="m 972.421,316.668 -3.811,-0.953 c 0,0 -2.858,-16.2 -9.527,-14.29 -6.669,1.91 -23.817,3.811 -23.817,-3.811 0,-7.622 16.2,-14.29 25.722,-13.338 9.522,0.952 25.722,3.811 24.77,18.1 -0.952,14.289 -7.1,28.192 -7.1,28.192 l -0.5,-8.473 z"
       transform="translate(316.331,175.576)"
       fill="#090814" />
    <path
       id="Path_4994-665"
       data-name="Path 4994"
       d="m 912.053,370.87 30.486,-12.385 7.145,-5.24 21.435,94.792 14.29,-42.871 -4.287,-54.779 39.536,20.483 -13.338,64.783 -1.905,24.77 5.716,20.006 c 0,0 20.006,14.29 13.337,29.533 -6.669,15.243 -14.29,16.2 -14.29,16.2 0,0 -32.391,-30.486 -34.3,-38.107 -1.909,-7.621 -4.763,-20.959 -4.763,-20.959 0,0 -16.2,60.972 -35.249,60.019 -19.049,-0.953 -19.054,-20.959 -19.054,-20.959 l 4.763,-20.959 7.621,-21.912 -3.811,-36.2 z"
       transform="translate(317.632,171.865)"
       fill="#090814" />
    <path
       id="Rectangle_967-666"
       data-name="Rectangle 967"
       d="m 0,0 h 664.145 v 417.348 a 8,8 0 0 1 -8,8 H 8 a 8,8 0 0 1 -8,-8 z"
       transform="translate(516.346,308.918)"
       fill="#e6e6e6" />
    <rect
       id="Rectangle_968"
       data-name="Rectangle 968"
       width="626.16302"
       height="162.146"
       transform="translate(535.337,362.268)"
       fill="#ffffff"
       x="0"
       y="0" />
    <rect
       id="Rectangle_969"
       data-name="Rectangle 969"
       width="132.42"
       height="7.6009998"
       transform="translate(691.089,385.688)"
       fill="#e6e6e6"
       x="0"
       y="0" />
    <rect
       id="Rectangle_970"
       data-name="Rectangle 970"
       width="204.485"
       height="7.6009998"
       transform="translate(691.089,413.416)"
       fill="#6c63ff"
       x="0"
       y="0" />
    <rect
       id="Rectangle_971"
       data-name="Rectangle 971"
       width="166.64999"
       height="7.6009998"
       transform="translate(691.089,439.539)"
       fill="#e6e6e6"
       x="0"
       y="0" />
    <rect
       id="Rectangle_972"
       data-name="Rectangle 972"
       width="97.288002"
       height="7.6009998"
       transform="translate(691.089,465.564)"
       fill="#e6e6e6"
       x="0"
       y="0" />
    <rect
       id="Rectangle_973"
       data-name="Rectangle 973"
       width="146.83299"
       height="7.6009998"
       transform="translate(691.089,491.59)"
       fill="#e6e6e6"
       x="0"
       y="0" />
    <rect
       id="Rectangle_974"
       data-name="Rectangle 974"
       width="16.215"
       height="16.215"
       transform="translate(630.734,382.986)"
       fill="#e6e6e6"
       x="0"
       y="0" />
    <rect
       id="Rectangle_975"
       data-name="Rectangle 975"
       width="16.215"
       height="16.215"
       transform="translate(630.734,409.109)"
       fill="#6c63ff"
       x="0"
       y="0" />
    <rect
       id="Rectangle_976"
       data-name="Rectangle 976"
       width="16.215"
       height="16.215"
       transform="translate(630.734,435.232)"
       fill="#e6e6e6"
       x="0"
       y="0" />
    <rect
       id="Rectangle_977"
       data-name="Rectangle 977"
       width="16.215"
       height="16.215"
       transform="translate(630.734,461.355)"
       fill="#e6e6e6"
       x="0"
       y="0" />
    <rect
       id="Rectangle_978"
       data-name="Rectangle 978"
       width="16.215"
       height="16.215"
       transform="translate(630.734,487.48)"
       fill="#e6e6e6"
       x="0"
       y="0" />
    <rect
       id="Rectangle_979"
       data-name="Rectangle 979"
       width="54.049"
       height="54.049"
       transform="translate(1019.885,419.918)"
       fill="#e6e6e6"
       x="0"
       y="0" />
    <rect
       id="Rectangle_980"
       data-name="Rectangle 980"
       width="626.16302"
       height="162.146"
       transform="translate(535.337,546.934)"
       fill="#ffffff"
       x="0"
       y="0" />
    <rect
       id="Rectangle_981"
       data-name="Rectangle 981"
       width="16.215"
       height="16.215"
       transform="translate(658.66,587.873)"
       fill="#e6e6e6"
       x="0"
       y="0" />
    <rect
       id="Rectangle_982"
       data-name="Rectangle 982"
       width="16.215"
       height="16.215"
       transform="translate(630.734,587.873)"
       fill="#6c63ff"
       x="0"
       y="0" />
    <path
       id="Path_4995-667"
       data-name="Path 4995"
       d="m 562.667,427.26 a 61.4,61.4 0 0 0 -99.118,-9.156 l -3.952,-3.453 a 66.638,66.638 0 0 1 107.586,9.936 z"
       transform="translate(342.989,169.543)"
       fill="#e6e6e6" />
    <path
       id="Path_4996-668"
       data-name="Path 4996"
       d="m 571.147,497.565 -4.355,-2.928 a 61.43,61.43 0 0 0 1.882,-65.432 l 4.516,-2.673 a 66.679,66.679 0 0 1 -2.043,71.033 z"
       transform="translate(336.981,167.598)"
       fill="#6c63ff" />
    <path
       id="Path_4997-669"
       data-name="Path 4997"
       d="m 459.167,504.285 a 66.633,66.633 0 0 1 -0.547,-88.28 l 3.952,3.453 a 61.386,61.386 0 0 0 0.5,81.326 z"
       transform="translate(343.966,168.188)"
       fill="#6c63ff" />
    <path
       id="Path_4998-670"
       data-name="Path 4998"
       d="m 509.828,531.115 a 66.746,66.746 0 0 1 -49.652,-22.2 l 3.909,-3.5 a 61.4,61.4 0 0 0 96.733,-6.738 l 4.355,2.928 a 66.6,66.6 0 0 1 -55.344,29.507 z"
       transform="translate(342.957,163.555)"
       fill="#6c63ff" />
    <rect
       id="Rectangle_983"
       data-name="Rectangle 983"
       width="54.049"
       height="54.049"
       transform="translate(1019.885,596.479)"
       fill="#e6e6e6"
       x="0"
       y="0" />
    <path
       id="Rectangle_985-671"
       data-name="Rectangle 985"
       d="m 8,0 h 648.145 a 8,8 0 0 1 8,8 V 28.215 H 0 V 8 A 8,8 0 0 1 8,0 Z"
       transform="translate(516.063,308.541)"
       fill="#6c63ff" />
    <circle
       id="Ellipse_852"
       data-name="Ellipse 852"
       cx="5.2290001"
       cy="5.2290001"
       r="5.2290001"
       transform="translate(531.8,317.736)"
       fill="#ffffff" />
    <circle
       id="Ellipse_853"
       data-name="Ellipse 853"
       cx="5.2290001"
       cy="5.2290001"
       r="5.2290001"
       transform="translate(551.649,317.736)"
       fill="#ffffff" />
    <circle
       id="Ellipse_854"
       data-name="Ellipse 854"
       cx="5.2290001"
       cy="5.2290001"
       r="5.2290001"
       transform="translate(571.5,317.736)"
       fill="#ffffff" />
    <rect
       id="Rectangle_986"
       data-name="Rectangle 986"
       width="81.288002"
       height="7.6009998"
       transform="translate(630.734,619.531)"
       fill="#e6e6e6"
       x="0"
       y="0" />
    <rect
       id="Rectangle_987"
       data-name="Rectangle 987"
       width="95.288002"
       height="7.6009998"
       transform="translate(630.734,635.531)"
       fill="#e6e6e6"
       x="0"
       y="0" />
    <rect
       id="Rectangle_988"
       data-name="Rectangle 988"
       width="81.288002"
       height="7.6009998"
       transform="translate(630.734,651.531)"
       fill="#e6e6e6"
       x="0"
       y="0" />
  </g>
</svg>
