<?xml version="1.0" encoding="UTF-8" standalone="no"?>
<!-- Created with Inkscape (http://www.inkscape.org/) -->

<svg
   width="1619mm"
   height="1200mm"
   viewBox="0 0 1619 1200"
   version="1.1"
   id="svg1"
   inkscape:export-filename="wabe.svg"
   inkscape:export-xdpi="96"
   inkscape:export-ydpi="96"
   xmlns:inkscape="http://www.inkscape.org/namespaces/inkscape"
   xmlns:sodipodi="http://sodipodi.sourceforge.net/DTD/sodipodi-0.dtd"
   xmlns="http://www.w3.org/2000/svg"
   xmlns:svg="http://www.w3.org/2000/svg">
  <sodipodi:namedview
     id="namedview1"
     pagecolor="#ffffff"
     bordercolor="#000000"
     borderopacity="0.25"
     inkscape:showpageshadow="2"
     inkscape:pageopacity="0.0"
     inkscape:pagecheckerboard="0"
     inkscape:deskcolor="#d1d1d1"
     inkscape:document-units="mm" />
  <defs
     id="defs1" />
  <g
     inkscape:label="Capa 1"
     inkscape:groupmode="layer"
     id="layer1"
     style="display:inline">
    <path
       style="fill:#86c4f8;fill-opacity:1;stroke-width:0.278902"
       d="M 0.1361048,1200.1934 C 204.83569,851.61863 414.23081,1244.7981 615.43571,1041.6094 816.64058,838.42067 1006.0099,1182.7721 1159.8724,968.8892 1313.7349,755.00638 1619.1321,839.75743 1619.1321,839.75743 l 0.2283,360.12527 z"
       id="path1"
       sodipodi:nodetypes="cssccc" />
    <path
       style="display:inline;fill:#86c4f8;fill-opacity:1;stroke-width:0.265112"
       d="m 1619.093,806.33825 c 0,0 -187.3683,-17.41122 -275.9088,-4.27765 -88.5406,13.13357 -210.4286,131.38275 -271.6312,196.77219 -61.2026,65.38941 -220.7224,-96.73481 -322.9631,-81.27546 -102.2407,15.45935 -148.68275,118.85027 -248.1041,134.74617 -99.42135,15.8959 -316.54657,-57.74841 -316.54657,-57.74841 0,0 174.63956,30.49741 301.57479,23.52721 126.93522,-6.9703 163.02222,-169.70451 271.63118,-192.49458 100.44164,-21.07627 201.62452,82.47467 301.5748,62.02601 108.2636,-22.14948 133.9439,-173.60882 260.937,-188.21689 126.9931,-14.60807 299.436,-4.27765 299.436,-4.27765 z"
       id="path2"
       sodipodi:nodetypes="czzzzczaszcc" />
    <path
       style="display:inline;fill:#86c4f8;fill-opacity:1;stroke-width:0.265112"
       d="m 759.28402,776.39467 c 0,0 221.91184,76.83031 295.15838,83.41428 73.2465,6.58397 67.3223,-99.92562 177.5227,-164.68978 110.2003,-64.76416 387.1279,-32.08242 387.1279,-32.08242 V 0 c 0,0 -28.3562,233.92725 -87.6919,297.29712 -59.3357,63.36987 -95.8614,20.35987 -181.8004,96.2473 -85.9391,75.88742 -92.7597,182.91348 -186.0781,207.46632 -93.3184,24.55283 -70.0516,137.49445 -151.8568,171.10627 -81.8052,33.61182 -252.38178,4.27766 -252.38178,4.27766 z"
       id="path3"
       sodipodi:nodetypes="czzcczzzzc" />
    <path
       style="display:none;fill:#86c4f8;fill-opacity:1;stroke-width:0.265112"
       d="m 1.1269634,595.70568 c 0,0 38.8336876,-162.94755 304.0725366,-361.62894 C 570.43835,35.395349 854.31769,0.77735913 854.31769,0.77735913 H -0.77735913 Z"
       id="path4"
       sodipodi:nodetypes="czccc" />
  </g>
</svg>
