<?xml version="1.0" encoding="UTF-8" standalone="no"?>
<!-- Created with Inkscape (http://www.inkscape.org/) -->

<svg
   width="4756.8545mm"
   height="607.11908mm"
   viewBox="0 0 4756.8545 607.11908"
   version="1.1"
   id="svg1"
   inkscape:export-filename="wd1.svg"
   inkscape:export-xdpi="96"
   inkscape:export-ydpi="96"
   sodipodi:docname="wave1.svg"
   inkscape:version="1.3.2 (091e20e, 2023-11-25, custom)"
   xmlns:inkscape="http://www.inkscape.org/namespaces/inkscape"
   xmlns:sodipodi="http://sodipodi.sourceforge.net/DTD/sodipodi-0.dtd"
   xmlns="http://www.w3.org/2000/svg"
   xmlns:svg="http://www.w3.org/2000/svg">
  <sodipodi:namedview
     id="namedview1"
     pagecolor="#ffffff"
     bordercolor="#000000"
     borderopacity="0.25"
     inkscape:showpageshadow="2"
     inkscape:pageopacity="0.0"
     inkscape:pagecheckerboard="0"
     inkscape:deskcolor="#d1d1d1"
     inkscape:document-units="mm"
     inkscape:zoom="0.080790179"
     inkscape:cx="2246.5602"
     inkscape:cy="2970.6581"
     inkscape:window-width="1350"
     inkscape:window-height="720"
     inkscape:window-x="0"
     inkscape:window-y="0"
     inkscape:window-maximized="0"
     inkscape:current-layer="layer3" />
  <defs
     id="defs1" />
  <g
     inkscape:label="Capa 1"
     inkscape:groupmode="layer"
     id="layer1"
     style="display:none"
     transform="translate(-2.0610194,-1.5950406)">
    <path
       style="display:inline;fill:#86c4f8;fill-opacity:1;stroke-width:0.265112"
       d="m 759.28402,776.39467 c 0,0 221.91184,76.83031 295.15838,83.41428 73.2465,6.58397 67.3223,-99.92562 177.5227,-164.68978 110.2003,-64.76416 387.1279,-32.08242 387.1279,-32.08242 V 0 c 0,0 -28.3562,233.92725 -87.6919,297.29712 -59.3357,63.36987 -95.8614,20.35987 -181.8004,96.2473 -85.9391,75.88742 -92.7597,182.91348 -186.0781,207.46632 -93.3184,24.55283 -70.0516,137.49445 -151.8568,171.10627 -81.8052,33.61182 -252.38178,4.27766 -252.38178,4.27766 z"
       id="path3"
       sodipodi:nodetypes="czzcczzzzc" />
    <path
       style="display:inline;fill:#86c4f8;fill-opacity:1;stroke-width:0.265112"
       d="m 1.1269634,595.70568 c 0,0 38.8336876,-162.94755 304.0725366,-361.62894 C 570.43835,35.395349 854.31769,0.77735913 854.31769,0.77735913 H -0.77735913 Z"
       id="path4"
       sodipodi:nodetypes="czccc" />
  </g>
  <g
     inkscape:groupmode="layer"
     id="layer3"
     inkscape:label="Capa 3"
     transform="translate(-2.0610194,-1.5950406)">
    <path
       style="display:none;fill:#075d81;fill-opacity:1;stroke-width:4.50762;paint-order:fill markers stroke"
       d="M 1.6053788,1.5560525 V 453.56184 c 0,0 405.2119112,193.27862 1206.5910212,35.15605 801.3792,-158.1226 929.3112,17.05037 1657.1198,155.6909 727.8086,138.64044 1216.9483,-67.80091 1216.9483,-67.80091 V 1.5560525 Z"
       id="path5-4"
       sodipodi:nodetypes="cczzccc"
       inkscape:export-filename="..\..\..\..\AppServ\www\siscatp\src\static\img\hola.png"
       inkscape:export-xdpi="96"
       inkscape:export-ydpi="96" />
    <path
       style="display:inline;fill:#00425a;fill-opacity:1;stroke-width:4.61813;paint-order:fill markers stroke"
       d="M 2.0610195,1.5950406 V 408.58589 c 0,0 584.6325505,216.08316 1327.2797805,21.75998 742.6472,-194.32315 1142.7439,60.88482 2010.9696,150.08053 868.2263,89.19573 1418.6054,-61.04856 1418.6054,-61.04856 V 1.5950406 Z"
       id="path5"
       sodipodi:nodetypes="cczzccc"
       inkscape:export-filename="..\..\..\..\AppServ\www\siscatp\src\static\img\wd1.svg"
       inkscape:export-xdpi="96"
       inkscape:export-ydpi="96" />
  </g>
</svg>
